<?xml version="1.0" encoding="UTF-8" standalone="no"?>
<!DOCTYPE svg PUBLIC "-//W3C//DTD SVG 1.1//EN"
 "http://www.w3.org/Graphics/SVG/1.1/DTD/svg11.dtd">
<!-- Generated by graphviz version 2.38.0 (20140413.2041)
 -->
<!-- Title: G Pages: 1 -->
<svg width="567pt" height="221pt"
 viewBox="0.00 0.00 566.50 221.00" xmlns="http://www.w3.org/2000/svg" xmlns:xlink="http://www.w3.org/1999/xlink">
<g id="graph0" class="graph" transform="scale(1 1) rotate(0) translate(4 217)">
<title>G</title>
<polygon fill="white" stroke="none" points="-4,4 -4,-217 562.5,-217 562.5,4 -4,4"/>
<!-- 139779064325736 -->
<g id="node1" class="node"><title>139779064325736</title>
<polygon fill="none" stroke="black" points="0,-166.5 0,-212.5 282,-212.5 282,-166.5 0,-166.5"/>
<text text-anchor="middle" x="59" y="-185.8" font-family="Times,serif" font-size="14.00">image: InputLayer</text>
<polyline fill="none" stroke="black" points="118,-166.5 118,-212.5 "/>
<text text-anchor="middle" x="145.5" y="-197.3" font-family="Times,serif" font-size="14.00">input:</text>
<polyline fill="none" stroke="black" points="118,-189.5 173,-189.5 "/>
<text text-anchor="middle" x="145.5" y="-174.3" font-family="Times,serif" font-size="14.00">output:</text>
<polyline fill="none" stroke="black" points="173,-166.5 173,-212.5 "/>
<text text-anchor="middle" x="227.5" y="-197.3" font-family="Times,serif" font-size="14.00">(32, 256, 256, 3)</text>
<polyline fill="none" stroke="black" points="173,-189.5 282,-189.5 "/>
<text text-anchor="middle" x="227.5" y="-174.3" font-family="Times,serif" font-size="14.00">(32, 256, 256, 3)</text>
</g>
<!-- 139774276113128 -->
<g id="node2" class="node"><title>139774276113128</title>
<polygon fill="none" stroke="black" points="5,-83.5 5,-129.5 277,-129.5 277,-83.5 5,-83.5"/>
<text text-anchor="middle" x="59" y="-102.8" font-family="Times,serif" font-size="14.00">model_1: Model</text>
<polyline fill="none" stroke="black" points="113,-83.5 113,-129.5 "/>
<text text-anchor="middle" x="140.5" y="-114.3" font-family="Times,serif" font-size="14.00">input:</text>
<polyline fill="none" stroke="black" points="113,-106.5 168,-106.5 "/>
<text text-anchor="middle" x="140.5" y="-91.3" font-family="Times,serif" font-size="14.00">output:</text>
<polyline fill="none" stroke="black" points="168,-83.5 168,-129.5 "/>
<text text-anchor="middle" x="222.5" y="-114.3" font-family="Times,serif" font-size="14.00">(32, 256, 256, 3)</text>
<polyline fill="none" stroke="black" points="168,-106.5 277,-106.5 "/>
<text text-anchor="middle" x="222.5" y="-91.3" font-family="Times,serif" font-size="14.00">(32, 8, 8, 2048)</text>
</g>
<!-- 139779064325736&#45;&gt;139774276113128 -->
<g id="edge1" class="edge"><title>139779064325736&#45;&gt;139774276113128</title>
<path fill="none" stroke="black" d="M141,-166.366C141,-158.152 141,-148.658 141,-139.725"/>
<polygon fill="black" stroke="black" points="144.5,-139.607 141,-129.607 137.5,-139.607 144.5,-139.607"/>
</g>
<!-- 139779182598968 -->
<g id="node4" class="node"><title>139779182598968</title>
<polygon fill="none" stroke="black" points="121.5,-0.5 121.5,-46.5 446.5,-46.5 446.5,-0.5 121.5,-0.5"/>
<text text-anchor="middle" x="175.5" y="-19.8" font-family="Times,serif" font-size="14.00">model_2: Model</text>
<polyline fill="none" stroke="black" points="229.5,-0.5 229.5,-46.5 "/>
<text text-anchor="middle" x="257" y="-31.3" font-family="Times,serif" font-size="14.00">input:</text>
<polyline fill="none" stroke="black" points="229.5,-23.5 284.5,-23.5 "/>
<text text-anchor="middle" x="257" y="-8.3" font-family="Times,serif" font-size="14.00">output:</text>
<polyline fill="none" stroke="black" points="284.5,-0.5 284.5,-46.5 "/>
<text text-anchor="middle" x="365.5" y="-31.3" font-family="Times,serif" font-size="14.00">[(32, 8, 8, 2048), (32, 40)]</text>
<polyline fill="none" stroke="black" points="284.5,-23.5 446.5,-23.5 "/>
<text text-anchor="middle" x="365.5" y="-8.3" font-family="Times,serif" font-size="14.00">(32, 40, 17628)</text>
</g>
<!-- 139774276113128&#45;&gt;139779182598968 -->
<g id="edge2" class="edge"><title>139774276113128&#45;&gt;139779182598968</title>
<path fill="none" stroke="black" d="M180.075,-83.3664C197.415,-73.5444 217.983,-61.894 236.227,-51.5602"/>
<polygon fill="black" stroke="black" points="237.996,-54.5809 244.972,-46.6068 234.546,-48.4901 237.996,-54.5809"/>
</g>
<!-- 139772822927624 -->
<g id="node3" class="node"><title>139772822927624</title>
<polygon fill="none" stroke="black" points="295.5,-83.5 295.5,-129.5 558.5,-129.5 558.5,-83.5 295.5,-83.5"/>
<text text-anchor="middle" x="369.5" y="-102.8" font-family="Times,serif" font-size="14.00">prev_words: InputLayer</text>
<polyline fill="none" stroke="black" points="443.5,-83.5 443.5,-129.5 "/>
<text text-anchor="middle" x="471" y="-114.3" font-family="Times,serif" font-size="14.00">input:</text>
<polyline fill="none" stroke="black" points="443.5,-106.5 498.5,-106.5 "/>
<text text-anchor="middle" x="471" y="-91.3" font-family="Times,serif" font-size="14.00">output:</text>
<polyline fill="none" stroke="black" points="498.5,-83.5 498.5,-129.5 "/>
<text text-anchor="middle" x="528.5" y="-114.3" font-family="Times,serif" font-size="14.00">(32, 40)</text>
<polyline fill="none" stroke="black" points="498.5,-106.5 558.5,-106.5 "/>
<text text-anchor="middle" x="528.5" y="-91.3" font-family="Times,serif" font-size="14.00">(32, 40)</text>
</g>
<!-- 139772822927624&#45;&gt;139779182598968 -->
<g id="edge3" class="edge"><title>139772822927624&#45;&gt;139779182598968</title>
<path fill="none" stroke="black" d="M387.925,-83.3664C370.585,-73.5444 350.017,-61.894 331.773,-51.5602"/>
<polygon fill="black" stroke="black" points="333.454,-48.4901 323.028,-46.6068 330.004,-54.5809 333.454,-48.4901"/>
</g>
</g>
</svg>
