<?xml version="1.0" encoding="UTF-8" standalone="no"?>
<!DOCTYPE svg PUBLIC "-//W3C//DTD SVG 1.1//EN"
 "http://www.w3.org/Graphics/SVG/1.1/DTD/svg11.dtd">
<!-- Generated by graphviz version 2.38.0 (20140413.2041)
 -->
<!-- Title: G Pages: 1 -->
<svg width="850pt" height="553pt"
 viewBox="0.00 0.00 850.00 553.00" xmlns="http://www.w3.org/2000/svg" xmlns:xlink="http://www.w3.org/1999/xlink">
<g id="graph0" class="graph" transform="scale(1 1) rotate(0) translate(4 549)">
<title>G</title>
<polygon fill="white" stroke="none" points="-4,4 -4,-549 846,-549 846,4 -4,4"/>
<!-- 140400924482248 -->
<g id="node1" class="node"><title>140400924482248</title>
<polygon fill="none" stroke="black" points="107.5,-498.5 107.5,-544.5 379.5,-544.5 379.5,-498.5 107.5,-498.5"/>
<text text-anchor="middle" x="170" y="-517.8" font-family="Times,serif" font-size="14.00">input_1: InputLayer</text>
<polyline fill="none" stroke="black" points="232.5,-498.5 232.5,-544.5 "/>
<text text-anchor="middle" x="260" y="-529.3" font-family="Times,serif" font-size="14.00">input:</text>
<polyline fill="none" stroke="black" points="232.5,-521.5 287.5,-521.5 "/>
<text text-anchor="middle" x="260" y="-506.3" font-family="Times,serif" font-size="14.00">output:</text>
<polyline fill="none" stroke="black" points="287.5,-498.5 287.5,-544.5 "/>
<text text-anchor="middle" x="333.5" y="-529.3" font-family="Times,serif" font-size="14.00">(None, None)</text>
<polyline fill="none" stroke="black" points="287.5,-521.5 379.5,-521.5 "/>
<text text-anchor="middle" x="333.5" y="-506.3" font-family="Times,serif" font-size="14.00">(None, None)</text>
</g>
<!-- 140400923245368 -->
<g id="node3" class="node"><title>140400923245368</title>
<polygon fill="none" stroke="black" points="76,-415.5 76,-461.5 411,-461.5 411,-415.5 76,-415.5"/>
<text text-anchor="middle" x="156.5" y="-434.8" font-family="Times,serif" font-size="14.00">embedding_1: Embedding</text>
<polyline fill="none" stroke="black" points="237,-415.5 237,-461.5 "/>
<text text-anchor="middle" x="264.5" y="-446.3" font-family="Times,serif" font-size="14.00">input:</text>
<polyline fill="none" stroke="black" points="237,-438.5 292,-438.5 "/>
<text text-anchor="middle" x="264.5" y="-423.3" font-family="Times,serif" font-size="14.00">output:</text>
<polyline fill="none" stroke="black" points="292,-415.5 292,-461.5 "/>
<text text-anchor="middle" x="351.5" y="-446.3" font-family="Times,serif" font-size="14.00">(None, None)</text>
<polyline fill="none" stroke="black" points="292,-438.5 411,-438.5 "/>
<text text-anchor="middle" x="351.5" y="-423.3" font-family="Times,serif" font-size="14.00">(None, None, 300)</text>
</g>
<!-- 140400924482248&#45;&gt;140400923245368 -->
<g id="edge1" class="edge"><title>140400924482248&#45;&gt;140400923245368</title>
<path fill="none" stroke="black" d="M243.5,-498.366C243.5,-490.152 243.5,-480.658 243.5,-471.725"/>
<polygon fill="black" stroke="black" points="247,-471.607 243.5,-461.607 240,-471.607 247,-471.607"/>
</g>
<!-- 140400920264208 -->
<g id="node2" class="node"><title>140400920264208</title>
<polygon fill="none" stroke="black" points="539,-415.5 539,-461.5 808,-461.5 808,-415.5 539,-415.5"/>
<text text-anchor="middle" x="601.5" y="-434.8" font-family="Times,serif" font-size="14.00">input_2: InputLayer</text>
<polyline fill="none" stroke="black" points="664,-415.5 664,-461.5 "/>
<text text-anchor="middle" x="691.5" y="-446.3" font-family="Times,serif" font-size="14.00">input:</text>
<polyline fill="none" stroke="black" points="664,-438.5 719,-438.5 "/>
<text text-anchor="middle" x="691.5" y="-423.3" font-family="Times,serif" font-size="14.00">output:</text>
<polyline fill="none" stroke="black" points="719,-415.5 719,-461.5 "/>
<text text-anchor="middle" x="763.5" y="-446.3" font-family="Times,serif" font-size="14.00">(None, 2048)</text>
<polyline fill="none" stroke="black" points="719,-438.5 808,-438.5 "/>
<text text-anchor="middle" x="763.5" y="-423.3" font-family="Times,serif" font-size="14.00">(None, 2048)</text>
</g>
<!-- 140400920200528 -->
<g id="node4" class="node"><title>140400920200528</title>
<polygon fill="none" stroke="black" points="522,-332.5 522,-378.5 825,-378.5 825,-332.5 522,-332.5"/>
<text text-anchor="middle" x="601.5" y="-351.8" font-family="Times,serif" font-size="14.00">image_embedding: Dense</text>
<polyline fill="none" stroke="black" points="681,-332.5 681,-378.5 "/>
<text text-anchor="middle" x="708.5" y="-363.3" font-family="Times,serif" font-size="14.00">input:</text>
<polyline fill="none" stroke="black" points="681,-355.5 736,-355.5 "/>
<text text-anchor="middle" x="708.5" y="-340.3" font-family="Times,serif" font-size="14.00">output:</text>
<polyline fill="none" stroke="black" points="736,-332.5 736,-378.5 "/>
<text text-anchor="middle" x="780.5" y="-363.3" font-family="Times,serif" font-size="14.00">(None, 2048)</text>
<polyline fill="none" stroke="black" points="736,-355.5 825,-355.5 "/>
<text text-anchor="middle" x="780.5" y="-340.3" font-family="Times,serif" font-size="14.00">(None, 300)</text>
</g>
<!-- 140400920264208&#45;&gt;140400920200528 -->
<g id="edge2" class="edge"><title>140400920264208&#45;&gt;140400920200528</title>
<path fill="none" stroke="black" d="M673.5,-415.366C673.5,-407.152 673.5,-397.658 673.5,-388.725"/>
<polygon fill="black" stroke="black" points="677,-388.607 673.5,-378.607 670,-388.607 677,-388.607"/>
</g>
<!-- 140400923245424 -->
<g id="node5" class="node"><title>140400923245424</title>
<polygon fill="none" stroke="black" points="107.5,-332.5 107.5,-378.5 379.5,-378.5 379.5,-332.5 107.5,-332.5"/>
<text text-anchor="middle" x="156.5" y="-351.8" font-family="Times,serif" font-size="14.00">lstm_1: LSTM</text>
<polyline fill="none" stroke="black" points="205.5,-332.5 205.5,-378.5 "/>
<text text-anchor="middle" x="233" y="-363.3" font-family="Times,serif" font-size="14.00">input:</text>
<polyline fill="none" stroke="black" points="205.5,-355.5 260.5,-355.5 "/>
<text text-anchor="middle" x="233" y="-340.3" font-family="Times,serif" font-size="14.00">output:</text>
<polyline fill="none" stroke="black" points="260.5,-332.5 260.5,-378.5 "/>
<text text-anchor="middle" x="320" y="-363.3" font-family="Times,serif" font-size="14.00">(None, None, 300)</text>
<polyline fill="none" stroke="black" points="260.5,-355.5 379.5,-355.5 "/>
<text text-anchor="middle" x="320" y="-340.3" font-family="Times,serif" font-size="14.00">(None, None, 256)</text>
</g>
<!-- 140400923245368&#45;&gt;140400923245424 -->
<g id="edge3" class="edge"><title>140400923245368&#45;&gt;140400923245424</title>
<path fill="none" stroke="black" d="M243.5,-415.366C243.5,-407.152 243.5,-397.658 243.5,-388.725"/>
<polygon fill="black" stroke="black" points="247,-388.607 243.5,-378.607 240,-388.607 247,-388.607"/>
</g>
<!-- 140400919336160 -->
<g id="node6" class="node"><title>140400919336160</title>
<polygon fill="none" stroke="black" points="505,-249.5 505,-295.5 842,-295.5 842,-249.5 505,-249.5"/>
<text text-anchor="middle" x="597.5" y="-268.8" font-family="Times,serif" font-size="14.00">repeat_vector_1: RepeatVector</text>
<polyline fill="none" stroke="black" points="690,-249.5 690,-295.5 "/>
<text text-anchor="middle" x="717.5" y="-280.3" font-family="Times,serif" font-size="14.00">input:</text>
<polyline fill="none" stroke="black" points="690,-272.5 745,-272.5 "/>
<text text-anchor="middle" x="717.5" y="-257.3" font-family="Times,serif" font-size="14.00">output:</text>
<polyline fill="none" stroke="black" points="745,-249.5 745,-295.5 "/>
<text text-anchor="middle" x="793.5" y="-280.3" font-family="Times,serif" font-size="14.00">(None, 300)</text>
<polyline fill="none" stroke="black" points="745,-272.5 842,-272.5 "/>
<text text-anchor="middle" x="793.5" y="-257.3" font-family="Times,serif" font-size="14.00">(None, 1, 300)</text>
</g>
<!-- 140400920200528&#45;&gt;140400919336160 -->
<g id="edge4" class="edge"><title>140400920200528&#45;&gt;140400919336160</title>
<path fill="none" stroke="black" d="M673.5,-332.366C673.5,-324.152 673.5,-314.658 673.5,-305.725"/>
<polygon fill="black" stroke="black" points="677,-305.607 673.5,-295.607 670,-305.607 677,-305.607"/>
</g>
<!-- 140400920264320 -->
<g id="node7" class="node"><title>140400920264320</title>
<polygon fill="none" stroke="black" points="0,-249.5 0,-295.5 487,-295.5 487,-249.5 0,-249.5"/>
<text text-anchor="middle" x="156.5" y="-268.8" font-family="Times,serif" font-size="14.00">time_distributed_1(dense_1): TimeDistributed(Dense)</text>
<polyline fill="none" stroke="black" points="313,-249.5 313,-295.5 "/>
<text text-anchor="middle" x="340.5" y="-280.3" font-family="Times,serif" font-size="14.00">input:</text>
<polyline fill="none" stroke="black" points="313,-272.5 368,-272.5 "/>
<text text-anchor="middle" x="340.5" y="-257.3" font-family="Times,serif" font-size="14.00">output:</text>
<polyline fill="none" stroke="black" points="368,-249.5 368,-295.5 "/>
<text text-anchor="middle" x="427.5" y="-280.3" font-family="Times,serif" font-size="14.00">(None, None, 256)</text>
<polyline fill="none" stroke="black" points="368,-272.5 487,-272.5 "/>
<text text-anchor="middle" x="427.5" y="-257.3" font-family="Times,serif" font-size="14.00">(None, None, 300)</text>
</g>
<!-- 140400923245424&#45;&gt;140400920264320 -->
<g id="edge5" class="edge"><title>140400923245424&#45;&gt;140400920264320</title>
<path fill="none" stroke="black" d="M243.5,-332.366C243.5,-324.152 243.5,-314.658 243.5,-305.725"/>
<polygon fill="black" stroke="black" points="247,-305.607 243.5,-295.607 240,-305.607 247,-305.607"/>
</g>
<!-- 140400919336608 -->
<g id="node8" class="node"><title>140400919336608</title>
<polygon fill="none" stroke="black" points="239,-166.5 239,-212.5 678,-212.5 678,-166.5 239,-166.5"/>
<text text-anchor="middle" x="323" y="-185.8" font-family="Times,serif" font-size="14.00">concatenate_1: Concatenate</text>
<polyline fill="none" stroke="black" points="407,-166.5 407,-212.5 "/>
<text text-anchor="middle" x="434.5" y="-197.3" font-family="Times,serif" font-size="14.00">input:</text>
<polyline fill="none" stroke="black" points="407,-189.5 462,-189.5 "/>
<text text-anchor="middle" x="434.5" y="-174.3" font-family="Times,serif" font-size="14.00">output:</text>
<polyline fill="none" stroke="black" points="462,-166.5 462,-212.5 "/>
<text text-anchor="middle" x="570" y="-197.3" font-family="Times,serif" font-size="14.00">[(None, 1, 300), (None, None, 300)]</text>
<polyline fill="none" stroke="black" points="462,-189.5 678,-189.5 "/>
<text text-anchor="middle" x="570" y="-174.3" font-family="Times,serif" font-size="14.00">(None, None, 300)</text>
</g>
<!-- 140400919336160&#45;&gt;140400919336608 -->
<g id="edge6" class="edge"><title>140400919336160&#45;&gt;140400919336608</title>
<path fill="none" stroke="black" d="M615.034,-249.473C587.663,-239.162 554.895,-226.816 526.429,-216.092"/>
<polygon fill="black" stroke="black" points="527.546,-212.773 516.954,-212.522 525.078,-219.323 527.546,-212.773"/>
</g>
<!-- 140400920264320&#45;&gt;140400919336608 -->
<g id="edge7" class="edge"><title>140400920264320&#45;&gt;140400919336608</title>
<path fill="none" stroke="black" d="M301.966,-249.473C329.337,-239.162 362.105,-226.816 390.571,-216.092"/>
<polygon fill="black" stroke="black" points="391.922,-219.323 400.046,-212.522 389.454,-212.773 391.922,-219.323"/>
</g>
<!-- 140400919433736 -->
<g id="node9" class="node"><title>140400919433736</title>
<polygon fill="none" stroke="black" points="237,-83.5 237,-129.5 680,-129.5 680,-83.5 237,-83.5"/>
<text text-anchor="middle" x="371.5" y="-102.8" font-family="Times,serif" font-size="14.00">bidirectional_1(lstm_2): Bidirectional(LSTM)</text>
<polyline fill="none" stroke="black" points="506,-83.5 506,-129.5 "/>
<text text-anchor="middle" x="533.5" y="-114.3" font-family="Times,serif" font-size="14.00">input:</text>
<polyline fill="none" stroke="black" points="506,-106.5 561,-106.5 "/>
<text text-anchor="middle" x="533.5" y="-91.3" font-family="Times,serif" font-size="14.00">output:</text>
<polyline fill="none" stroke="black" points="561,-83.5 561,-129.5 "/>
<text text-anchor="middle" x="620.5" y="-114.3" font-family="Times,serif" font-size="14.00">(None, None, 300)</text>
<polyline fill="none" stroke="black" points="561,-106.5 680,-106.5 "/>
<text text-anchor="middle" x="620.5" y="-91.3" font-family="Times,serif" font-size="14.00">(None, 512)</text>
</g>
<!-- 140400919336608&#45;&gt;140400919433736 -->
<g id="edge8" class="edge"><title>140400919336608&#45;&gt;140400919433736</title>
<path fill="none" stroke="black" d="M458.5,-166.366C458.5,-158.152 458.5,-148.658 458.5,-139.725"/>
<polygon fill="black" stroke="black" points="462,-139.607 458.5,-129.607 455,-139.607 462,-139.607"/>
</g>
<!-- 140400919495960 -->
<g id="node10" class="node"><title>140400919495960</title>
<polygon fill="none" stroke="black" points="337,-0.5 337,-46.5 580,-46.5 580,-0.5 337,-0.5"/>
<text text-anchor="middle" x="383" y="-19.8" font-family="Times,serif" font-size="14.00">output: Dense</text>
<polyline fill="none" stroke="black" points="429,-0.5 429,-46.5 "/>
<text text-anchor="middle" x="456.5" y="-31.3" font-family="Times,serif" font-size="14.00">input:</text>
<polyline fill="none" stroke="black" points="429,-23.5 484,-23.5 "/>
<text text-anchor="middle" x="456.5" y="-8.3" font-family="Times,serif" font-size="14.00">output:</text>
<polyline fill="none" stroke="black" points="484,-0.5 484,-46.5 "/>
<text text-anchor="middle" x="532" y="-31.3" font-family="Times,serif" font-size="14.00">(None, 512)</text>
<polyline fill="none" stroke="black" points="484,-23.5 580,-23.5 "/>
<text text-anchor="middle" x="532" y="-8.3" font-family="Times,serif" font-size="14.00">(None, 17628)</text>
</g>
<!-- 140400919433736&#45;&gt;140400919495960 -->
<g id="edge9" class="edge"><title>140400919433736&#45;&gt;140400919495960</title>
<path fill="none" stroke="black" d="M458.5,-83.3664C458.5,-75.1516 458.5,-65.6579 458.5,-56.7252"/>
<polygon fill="black" stroke="black" points="462,-56.6068 458.5,-46.6068 455,-56.6069 462,-56.6068"/>
</g>
</g>
</svg>
