<?xml version="1.0" encoding="UTF-8" standalone="no"?>
<!DOCTYPE svg PUBLIC "-//W3C//DTD SVG 1.1//EN"
 "http://www.w3.org/Graphics/SVG/1.1/DTD/svg11.dtd">
<!-- Generated by graphviz version 2.38.0 (20140413.2041)
 -->
<!-- Title: G Pages: 1 -->
<svg width="836pt" height="1466pt"
 viewBox="0.00 0.00 835.50 1466.00" xmlns="http://www.w3.org/2000/svg" xmlns:xlink="http://www.w3.org/1999/xlink">
<g id="graph0" class="graph" transform="scale(1 1) rotate(0) translate(4 1462)">
<title>G</title>
<polygon fill="white" stroke="none" points="-4,4 -4,-1462 831.5,-1462 831.5,4 -4,4"/>
<!-- 2430514372280 -->
<g id="node1" class="node"><title>2430514372280</title>
<polygon fill="none" stroke="black" points="109,-1411.5 109,-1457.5 368,-1457.5 368,-1411.5 109,-1411.5"/>
<text text-anchor="middle" x="172" y="-1430.8" font-family="Times New Roman,serif" font-size="14.00">input_1: InputLayer</text>
<polyline fill="none" stroke="black" points="235,-1411.5 235,-1457.5 "/>
<text text-anchor="middle" x="263" y="-1442.3" font-family="Times New Roman,serif" font-size="14.00">input:</text>
<polyline fill="none" stroke="black" points="235,-1434.5 291,-1434.5 "/>
<text text-anchor="middle" x="263" y="-1419.3" font-family="Times New Roman,serif" font-size="14.00">output:</text>
<polyline fill="none" stroke="black" points="291,-1411.5 291,-1457.5 "/>
<text text-anchor="middle" x="329.5" y="-1442.3" font-family="Times New Roman,serif" font-size="14.00">(None, 40)</text>
<polyline fill="none" stroke="black" points="291,-1434.5 368,-1434.5 "/>
<text text-anchor="middle" x="329.5" y="-1419.3" font-family="Times New Roman,serif" font-size="14.00">(None, 40)</text>
</g>
<!-- 2430514489104 -->
<g id="node2" class="node"><title>2430514489104</title>
<polygon fill="none" stroke="black" points="77,-1328.5 77,-1374.5 400,-1374.5 400,-1328.5 77,-1328.5"/>
<text text-anchor="middle" x="158.5" y="-1347.8" font-family="Times New Roman,serif" font-size="14.00">embedding_1: Embedding</text>
<polyline fill="none" stroke="black" points="240,-1328.5 240,-1374.5 "/>
<text text-anchor="middle" x="268" y="-1359.3" font-family="Times New Roman,serif" font-size="14.00">input:</text>
<polyline fill="none" stroke="black" points="240,-1351.5 296,-1351.5 "/>
<text text-anchor="middle" x="268" y="-1336.3" font-family="Times New Roman,serif" font-size="14.00">output:</text>
<polyline fill="none" stroke="black" points="296,-1328.5 296,-1374.5 "/>
<text text-anchor="middle" x="348" y="-1359.3" font-family="Times New Roman,serif" font-size="14.00">(None, 40)</text>
<polyline fill="none" stroke="black" points="296,-1351.5 400,-1351.5 "/>
<text text-anchor="middle" x="348" y="-1336.3" font-family="Times New Roman,serif" font-size="14.00">(None, 40, 512)</text>
</g>
<!-- 2430514372280&#45;&gt;2430514489104 -->
<g id="edge1" class="edge"><title>2430514372280&#45;&gt;2430514489104</title>
<path fill="none" stroke="black" d="M238.5,-1411.37C238.5,-1403.15 238.5,-1393.66 238.5,-1384.73"/>
<polygon fill="black" stroke="black" points="242,-1384.61 238.5,-1374.61 235,-1384.61 242,-1384.61"/>
</g>
<!-- 2430514488712 -->
<g id="node4" class="node"><title>2430514488712</title>
<polygon fill="none" stroke="black" points="65.5,-1245.5 65.5,-1291.5 411.5,-1291.5 411.5,-1245.5 65.5,-1245.5"/>
<text text-anchor="middle" x="158.5" y="-1264.8" font-family="Times New Roman,serif" font-size="14.00">cu_dnnlstm_1: CuDNNLSTM</text>
<polyline fill="none" stroke="black" points="251.5,-1245.5 251.5,-1291.5 "/>
<text text-anchor="middle" x="279.5" y="-1276.3" font-family="Times New Roman,serif" font-size="14.00">input:</text>
<polyline fill="none" stroke="black" points="251.5,-1268.5 307.5,-1268.5 "/>
<text text-anchor="middle" x="279.5" y="-1253.3" font-family="Times New Roman,serif" font-size="14.00">output:</text>
<polyline fill="none" stroke="black" points="307.5,-1245.5 307.5,-1291.5 "/>
<text text-anchor="middle" x="359.5" y="-1276.3" font-family="Times New Roman,serif" font-size="14.00">(None, 40, 512)</text>
<polyline fill="none" stroke="black" points="307.5,-1268.5 411.5,-1268.5 "/>
<text text-anchor="middle" x="359.5" y="-1253.3" font-family="Times New Roman,serif" font-size="14.00">(None, 40, 256)</text>
</g>
<!-- 2430514489104&#45;&gt;2430514488712 -->
<g id="edge2" class="edge"><title>2430514489104&#45;&gt;2430514488712</title>
<path fill="none" stroke="black" d="M238.5,-1328.37C238.5,-1320.15 238.5,-1310.66 238.5,-1301.73"/>
<polygon fill="black" stroke="black" points="242,-1301.61 238.5,-1291.61 235,-1301.61 242,-1301.61"/>
</g>
<!-- 2430550683096 -->
<g id="node3" class="node"><title>2430550683096</title>
<polygon fill="none" stroke="black" points="532.5,-1245.5 532.5,-1291.5 826.5,-1291.5 826.5,-1245.5 532.5,-1245.5"/>
<text text-anchor="middle" x="595.5" y="-1264.8" font-family="Times New Roman,serif" font-size="14.00">input_2: InputLayer</text>
<polyline fill="none" stroke="black" points="658.5,-1245.5 658.5,-1291.5 "/>
<text text-anchor="middle" x="686.5" y="-1276.3" font-family="Times New Roman,serif" font-size="14.00">input:</text>
<polyline fill="none" stroke="black" points="658.5,-1268.5 714.5,-1268.5 "/>
<text text-anchor="middle" x="686.5" y="-1253.3" font-family="Times New Roman,serif" font-size="14.00">output:</text>
<polyline fill="none" stroke="black" points="714.5,-1245.5 714.5,-1291.5 "/>
<text text-anchor="middle" x="770.5" y="-1276.3" font-family="Times New Roman,serif" font-size="14.00">(None, 7, 7, 512)</text>
<polyline fill="none" stroke="black" points="714.5,-1268.5 826.5,-1268.5 "/>
<text text-anchor="middle" x="770.5" y="-1253.3" font-family="Times New Roman,serif" font-size="14.00">(None, 7, 7, 512)</text>
</g>
<!-- 2430550726584 -->
<g id="node5" class="node"><title>2430550726584</title>
<polygon fill="none" stroke="black" points="531.5,-1162.5 531.5,-1208.5 827.5,-1208.5 827.5,-1162.5 531.5,-1162.5"/>
<text text-anchor="middle" x="595.5" y="-1181.8" font-family="Times New Roman,serif" font-size="14.00">reshape_1: Reshape</text>
<polyline fill="none" stroke="black" points="659.5,-1162.5 659.5,-1208.5 "/>
<text text-anchor="middle" x="687.5" y="-1193.3" font-family="Times New Roman,serif" font-size="14.00">input:</text>
<polyline fill="none" stroke="black" points="659.5,-1185.5 715.5,-1185.5 "/>
<text text-anchor="middle" x="687.5" y="-1170.3" font-family="Times New Roman,serif" font-size="14.00">output:</text>
<polyline fill="none" stroke="black" points="715.5,-1162.5 715.5,-1208.5 "/>
<text text-anchor="middle" x="771.5" y="-1193.3" font-family="Times New Roman,serif" font-size="14.00">(None, 7, 7, 512)</text>
<polyline fill="none" stroke="black" points="715.5,-1185.5 827.5,-1185.5 "/>
<text text-anchor="middle" x="771.5" y="-1170.3" font-family="Times New Roman,serif" font-size="14.00">(None, 49, 512)</text>
</g>
<!-- 2430550683096&#45;&gt;2430550726584 -->
<g id="edge3" class="edge"><title>2430550683096&#45;&gt;2430550726584</title>
<path fill="none" stroke="black" d="M679.5,-1245.37C679.5,-1237.15 679.5,-1227.66 679.5,-1218.73"/>
<polygon fill="black" stroke="black" points="683,-1218.61 679.5,-1208.61 676,-1218.61 683,-1218.61"/>
</g>
<!-- 2430550683376 -->
<g id="node6" class="node"><title>2430550683376</title>
<polygon fill="none" stroke="black" points="0,-1162.5 0,-1208.5 477,-1208.5 477,-1162.5 0,-1162.5"/>
<text text-anchor="middle" x="158.5" y="-1181.8" font-family="Times New Roman,serif" font-size="14.00">time_distributed_1(dense_1): TimeDistributed(Dense)</text>
<polyline fill="none" stroke="black" points="317,-1162.5 317,-1208.5 "/>
<text text-anchor="middle" x="345" y="-1193.3" font-family="Times New Roman,serif" font-size="14.00">input:</text>
<polyline fill="none" stroke="black" points="317,-1185.5 373,-1185.5 "/>
<text text-anchor="middle" x="345" y="-1170.3" font-family="Times New Roman,serif" font-size="14.00">output:</text>
<polyline fill="none" stroke="black" points="373,-1162.5 373,-1208.5 "/>
<text text-anchor="middle" x="425" y="-1193.3" font-family="Times New Roman,serif" font-size="14.00">(None, 40, 256)</text>
<polyline fill="none" stroke="black" points="373,-1185.5 477,-1185.5 "/>
<text text-anchor="middle" x="425" y="-1170.3" font-family="Times New Roman,serif" font-size="14.00">(None, 40, 512)</text>
</g>
<!-- 2430514488712&#45;&gt;2430550683376 -->
<g id="edge4" class="edge"><title>2430514488712&#45;&gt;2430550683376</title>
<path fill="none" stroke="black" d="M238.5,-1245.37C238.5,-1237.15 238.5,-1227.66 238.5,-1218.73"/>
<polygon fill="black" stroke="black" points="242,-1218.61 238.5,-1208.61 235,-1218.61 242,-1218.61"/>
</g>
<!-- 2430550724904 -->
<g id="node7" class="node"><title>2430550724904</title>
<polygon fill="none" stroke="black" points="468.5,-1079.5 468.5,-1125.5 756.5,-1125.5 756.5,-1079.5 468.5,-1079.5"/>
<text text-anchor="middle" x="532.5" y="-1098.8" font-family="Times New Roman,serif" font-size="14.00">reshape_2: Reshape</text>
<polyline fill="none" stroke="black" points="596.5,-1079.5 596.5,-1125.5 "/>
<text text-anchor="middle" x="624.5" y="-1110.3" font-family="Times New Roman,serif" font-size="14.00">input:</text>
<polyline fill="none" stroke="black" points="596.5,-1102.5 652.5,-1102.5 "/>
<text text-anchor="middle" x="624.5" y="-1087.3" font-family="Times New Roman,serif" font-size="14.00">output:</text>
<polyline fill="none" stroke="black" points="652.5,-1079.5 652.5,-1125.5 "/>
<text text-anchor="middle" x="704.5" y="-1110.3" font-family="Times New Roman,serif" font-size="14.00">(None, 49, 512)</text>
<polyline fill="none" stroke="black" points="652.5,-1102.5 756.5,-1102.5 "/>
<text text-anchor="middle" x="704.5" y="-1087.3" font-family="Times New Roman,serif" font-size="14.00">(None, 25088)</text>
</g>
<!-- 2430550726584&#45;&gt;2430550724904 -->
<g id="edge5" class="edge"><title>2430550726584&#45;&gt;2430550724904</title>
<path fill="none" stroke="black" d="M661.192,-1162.37C653.806,-1153.44 645.17,-1143 637.239,-1133.41"/>
<polygon fill="black" stroke="black" points="639.857,-1131.08 630.786,-1125.61 634.463,-1135.54 639.857,-1131.08"/>
</g>
<!-- 2430551089784 -->
<g id="node15" class="node"><title>2430551089784</title>
<polygon fill="none" stroke="black" points="270,-498.5 270,-544.5 649,-544.5 649,-498.5 270,-498.5"/>
<text text-anchor="middle" x="334" y="-517.8" font-family="Times New Roman,serif" font-size="14.00">multiply_1: Multiply</text>
<polyline fill="none" stroke="black" points="398,-498.5 398,-544.5 "/>
<text text-anchor="middle" x="426" y="-529.3" font-family="Times New Roman,serif" font-size="14.00">input:</text>
<polyline fill="none" stroke="black" points="398,-521.5 454,-521.5 "/>
<text text-anchor="middle" x="426" y="-506.3" font-family="Times New Roman,serif" font-size="14.00">output:</text>
<polyline fill="none" stroke="black" points="454,-498.5 454,-544.5 "/>
<text text-anchor="middle" x="551.5" y="-529.3" font-family="Times New Roman,serif" font-size="14.00">[(None, 49, 512), (None, 49, 1)]</text>
<polyline fill="none" stroke="black" points="454,-521.5 649,-521.5 "/>
<text text-anchor="middle" x="551.5" y="-506.3" font-family="Times New Roman,serif" font-size="14.00">(None, 49, 512)</text>
</g>
<!-- 2430550726584&#45;&gt;2430551089784 -->
<g id="edge14" class="edge"><title>2430550726584&#45;&gt;2430551089784</title>
<path fill="none" stroke="black" d="M725.88,-1162.4C740.699,-1153.14 755.766,-1140.99 765.5,-1126 791.443,-1086.04 784.5,-1068.14 784.5,-1020.5 784.5,-1020.5 784.5,-1020.5 784.5,-686.5 784.5,-609.831 711.519,-568.997 634.725,-547.253"/>
<polygon fill="black" stroke="black" points="635.425,-543.816 624.856,-544.566 633.586,-550.57 635.425,-543.816"/>
</g>
<!-- 2430550727984 -->
<g id="node8" class="node"><title>2430550727984</title>
<polygon fill="none" stroke="black" points="162.5,-1079.5 162.5,-1125.5 450.5,-1125.5 450.5,-1079.5 162.5,-1079.5"/>
<text text-anchor="middle" x="226.5" y="-1098.8" font-family="Times New Roman,serif" font-size="14.00">reshape_3: Reshape</text>
<polyline fill="none" stroke="black" points="290.5,-1079.5 290.5,-1125.5 "/>
<text text-anchor="middle" x="318.5" y="-1110.3" font-family="Times New Roman,serif" font-size="14.00">input:</text>
<polyline fill="none" stroke="black" points="290.5,-1102.5 346.5,-1102.5 "/>
<text text-anchor="middle" x="318.5" y="-1087.3" font-family="Times New Roman,serif" font-size="14.00">output:</text>
<polyline fill="none" stroke="black" points="346.5,-1079.5 346.5,-1125.5 "/>
<text text-anchor="middle" x="398.5" y="-1110.3" font-family="Times New Roman,serif" font-size="14.00">(None, 40, 512)</text>
<polyline fill="none" stroke="black" points="346.5,-1102.5 450.5,-1102.5 "/>
<text text-anchor="middle" x="398.5" y="-1087.3" font-family="Times New Roman,serif" font-size="14.00">(None, 20480)</text>
</g>
<!-- 2430550683376&#45;&gt;2430550727984 -->
<g id="edge6" class="edge"><title>2430550683376&#45;&gt;2430550727984</title>
<path fill="none" stroke="black" d="M257.081,-1162.37C264.577,-1153.44 273.342,-1143 281.391,-1133.41"/>
<polygon fill="black" stroke="black" points="284.192,-1135.52 287.941,-1125.61 278.831,-1131.02 284.192,-1135.52"/>
</g>
<!-- 2430551131304 -->
<g id="node18" class="node"><title>2430551131304</title>
<polygon fill="none" stroke="black" points="35,-249.5 35,-295.5 466,-295.5 466,-249.5 35,-249.5"/>
<text text-anchor="middle" x="121.5" y="-268.8" font-family="Times New Roman,serif" font-size="14.00">concatenate_2: Concatenate</text>
<polyline fill="none" stroke="black" points="208,-249.5 208,-295.5 "/>
<text text-anchor="middle" x="236" y="-280.3" font-family="Times New Roman,serif" font-size="14.00">input:</text>
<polyline fill="none" stroke="black" points="208,-272.5 264,-272.5 "/>
<text text-anchor="middle" x="236" y="-257.3" font-family="Times New Roman,serif" font-size="14.00">output:</text>
<polyline fill="none" stroke="black" points="264,-249.5 264,-295.5 "/>
<text text-anchor="middle" x="365" y="-280.3" font-family="Times New Roman,serif" font-size="14.00">[(None, 1, 512), (None, 40, 512)]</text>
<polyline fill="none" stroke="black" points="264,-272.5 466,-272.5 "/>
<text text-anchor="middle" x="365" y="-257.3" font-family="Times New Roman,serif" font-size="14.00">(None, 41, 512)</text>
</g>
<!-- 2430550683376&#45;&gt;2430551131304 -->
<g id="edge19" class="edge"><title>2430550683376&#45;&gt;2430551131304</title>
<path fill="none" stroke="black" d="M192.655,-1162.29C178.007,-1153.03 163.117,-1140.9 153.5,-1126 127.666,-1085.97 134.5,-1068.14 134.5,-1020.5 134.5,-1020.5 134.5,-1020.5 134.5,-437.5 134.5,-381.968 179.38,-332.068 213.308,-302.279"/>
<polygon fill="black" stroke="black" points="215.901,-304.667 221.228,-295.509 211.353,-299.346 215.901,-304.667"/>
</g>
<!-- 2430550727200 -->
<g id="node9" class="node"><title>2430550727200</title>
<polygon fill="none" stroke="black" points="248,-996.5 248,-1042.5 671,-1042.5 671,-996.5 248,-996.5"/>
<text text-anchor="middle" x="334.5" y="-1015.8" font-family="Times New Roman,serif" font-size="14.00">concatenate_1: Concatenate</text>
<polyline fill="none" stroke="black" points="421,-996.5 421,-1042.5 "/>
<text text-anchor="middle" x="449" y="-1027.3" font-family="Times New Roman,serif" font-size="14.00">input:</text>
<polyline fill="none" stroke="black" points="421,-1019.5 477,-1019.5 "/>
<text text-anchor="middle" x="449" y="-1004.3" font-family="Times New Roman,serif" font-size="14.00">output:</text>
<polyline fill="none" stroke="black" points="477,-996.5 477,-1042.5 "/>
<text text-anchor="middle" x="574" y="-1027.3" font-family="Times New Roman,serif" font-size="14.00">[(None, 25088), (None, 20480)]</text>
<polyline fill="none" stroke="black" points="477,-1019.5 671,-1019.5 "/>
<text text-anchor="middle" x="574" y="-1004.3" font-family="Times New Roman,serif" font-size="14.00">(None, 45568)</text>
</g>
<!-- 2430550724904&#45;&gt;2430550727200 -->
<g id="edge7" class="edge"><title>2430550724904&#45;&gt;2430550727200</title>
<path fill="none" stroke="black" d="M570.692,-1079.37C552.055,-1069.5 529.933,-1057.79 510.348,-1047.42"/>
<polygon fill="black" stroke="black" points="511.733,-1044.19 501.257,-1042.61 508.458,-1050.38 511.733,-1044.19"/>
</g>
<!-- 2430550727984&#45;&gt;2430550727200 -->
<g id="edge8" class="edge"><title>2430550727984&#45;&gt;2430550727200</title>
<path fill="none" stroke="black" d="M348.308,-1079.37C366.945,-1069.5 389.067,-1057.79 408.652,-1047.42"/>
<polygon fill="black" stroke="black" points="410.542,-1050.38 417.743,-1042.61 407.267,-1044.19 410.542,-1050.38"/>
</g>
<!-- 2430550727144 -->
<g id="node10" class="node"><title>2430550727144</title>
<polygon fill="none" stroke="black" points="331,-913.5 331,-959.5 588,-959.5 588,-913.5 331,-913.5"/>
<text text-anchor="middle" x="383" y="-932.8" font-family="Times New Roman,serif" font-size="14.00">dense_2: Dense</text>
<polyline fill="none" stroke="black" points="435,-913.5 435,-959.5 "/>
<text text-anchor="middle" x="463" y="-944.3" font-family="Times New Roman,serif" font-size="14.00">input:</text>
<polyline fill="none" stroke="black" points="435,-936.5 491,-936.5 "/>
<text text-anchor="middle" x="463" y="-921.3" font-family="Times New Roman,serif" font-size="14.00">output:</text>
<polyline fill="none" stroke="black" points="491,-913.5 491,-959.5 "/>
<text text-anchor="middle" x="539.5" y="-944.3" font-family="Times New Roman,serif" font-size="14.00">(None, 45568)</text>
<polyline fill="none" stroke="black" points="491,-936.5 588,-936.5 "/>
<text text-anchor="middle" x="539.5" y="-921.3" font-family="Times New Roman,serif" font-size="14.00">(None, 256)</text>
</g>
<!-- 2430550727200&#45;&gt;2430550727144 -->
<g id="edge9" class="edge"><title>2430550727200&#45;&gt;2430550727144</title>
<path fill="none" stroke="black" d="M459.5,-996.366C459.5,-988.152 459.5,-978.658 459.5,-969.725"/>
<polygon fill="black" stroke="black" points="463,-969.607 459.5,-959.607 456,-969.607 463,-969.607"/>
</g>
<!-- 2430550881728 -->
<g id="node11" class="node"><title>2430550881728</title>
<polygon fill="none" stroke="black" points="334.5,-830.5 334.5,-876.5 584.5,-876.5 584.5,-830.5 334.5,-830.5"/>
<text text-anchor="middle" x="386.5" y="-849.8" font-family="Times New Roman,serif" font-size="14.00">dense_3: Dense</text>
<polyline fill="none" stroke="black" points="438.5,-830.5 438.5,-876.5 "/>
<text text-anchor="middle" x="466.5" y="-861.3" font-family="Times New Roman,serif" font-size="14.00">input:</text>
<polyline fill="none" stroke="black" points="438.5,-853.5 494.5,-853.5 "/>
<text text-anchor="middle" x="466.5" y="-838.3" font-family="Times New Roman,serif" font-size="14.00">output:</text>
<polyline fill="none" stroke="black" points="494.5,-830.5 494.5,-876.5 "/>
<text text-anchor="middle" x="539.5" y="-861.3" font-family="Times New Roman,serif" font-size="14.00">(None, 256)</text>
<polyline fill="none" stroke="black" points="494.5,-853.5 584.5,-853.5 "/>
<text text-anchor="middle" x="539.5" y="-838.3" font-family="Times New Roman,serif" font-size="14.00">(None, 1024)</text>
</g>
<!-- 2430550727144&#45;&gt;2430550881728 -->
<g id="edge10" class="edge"><title>2430550727144&#45;&gt;2430550881728</title>
<path fill="none" stroke="black" d="M459.5,-913.366C459.5,-905.152 459.5,-895.658 459.5,-886.725"/>
<polygon fill="black" stroke="black" points="463,-886.607 459.5,-876.607 456,-886.607 463,-886.607"/>
</g>
<!-- 2430550934920 -->
<g id="node12" class="node"><title>2430550934920</title>
<polygon fill="none" stroke="black" points="321,-747.5 321,-793.5 598,-793.5 598,-747.5 321,-747.5"/>
<text text-anchor="middle" x="386.5" y="-766.8" font-family="Times New Roman,serif" font-size="14.00">alpha_output: Dense</text>
<polyline fill="none" stroke="black" points="452,-747.5 452,-793.5 "/>
<text text-anchor="middle" x="480" y="-778.3" font-family="Times New Roman,serif" font-size="14.00">input:</text>
<polyline fill="none" stroke="black" points="452,-770.5 508,-770.5 "/>
<text text-anchor="middle" x="480" y="-755.3" font-family="Times New Roman,serif" font-size="14.00">output:</text>
<polyline fill="none" stroke="black" points="508,-747.5 508,-793.5 "/>
<text text-anchor="middle" x="553" y="-778.3" font-family="Times New Roman,serif" font-size="14.00">(None, 1024)</text>
<polyline fill="none" stroke="black" points="508,-770.5 598,-770.5 "/>
<text text-anchor="middle" x="553" y="-755.3" font-family="Times New Roman,serif" font-size="14.00">(None, 49)</text>
</g>
<!-- 2430550881728&#45;&gt;2430550934920 -->
<g id="edge11" class="edge"><title>2430550881728&#45;&gt;2430550934920</title>
<path fill="none" stroke="black" d="M459.5,-830.366C459.5,-822.152 459.5,-812.658 459.5,-803.725"/>
<polygon fill="black" stroke="black" points="463,-803.607 459.5,-793.607 456,-803.607 463,-803.607"/>
</g>
<!-- 2430550986088 -->
<g id="node13" class="node"><title>2430550986088</title>
<polygon fill="none" stroke="black" points="290.5,-664.5 290.5,-710.5 628.5,-710.5 628.5,-664.5 290.5,-664.5"/>
<text text-anchor="middle" x="386" y="-683.8" font-family="Times New Roman,serif" font-size="14.00">repeat_vector_1: RepeatVector</text>
<polyline fill="none" stroke="black" points="481.5,-664.5 481.5,-710.5 "/>
<text text-anchor="middle" x="509.5" y="-695.3" font-family="Times New Roman,serif" font-size="14.00">input:</text>
<polyline fill="none" stroke="black" points="481.5,-687.5 537.5,-687.5 "/>
<text text-anchor="middle" x="509.5" y="-672.3" font-family="Times New Roman,serif" font-size="14.00">output:</text>
<polyline fill="none" stroke="black" points="537.5,-664.5 537.5,-710.5 "/>
<text text-anchor="middle" x="583" y="-695.3" font-family="Times New Roman,serif" font-size="14.00">(None, 49)</text>
<polyline fill="none" stroke="black" points="537.5,-687.5 628.5,-687.5 "/>
<text text-anchor="middle" x="583" y="-672.3" font-family="Times New Roman,serif" font-size="14.00">(None, 1, 49)</text>
</g>
<!-- 2430550934920&#45;&gt;2430550986088 -->
<g id="edge12" class="edge"><title>2430550934920&#45;&gt;2430550986088</title>
<path fill="none" stroke="black" d="M459.5,-747.366C459.5,-739.152 459.5,-729.658 459.5,-720.725"/>
<polygon fill="black" stroke="black" points="463,-720.607 459.5,-710.607 456,-720.607 463,-720.607"/>
</g>
<!-- 2430550985584 -->
<g id="node14" class="node"><title>2430550985584</title>
<polygon fill="none" stroke="black" points="322,-581.5 322,-627.5 597,-627.5 597,-581.5 322,-581.5"/>
<text text-anchor="middle" x="386" y="-600.8" font-family="Times New Roman,serif" font-size="14.00">permute_1: Permute</text>
<polyline fill="none" stroke="black" points="450,-581.5 450,-627.5 "/>
<text text-anchor="middle" x="478" y="-612.3" font-family="Times New Roman,serif" font-size="14.00">input:</text>
<polyline fill="none" stroke="black" points="450,-604.5 506,-604.5 "/>
<text text-anchor="middle" x="478" y="-589.3" font-family="Times New Roman,serif" font-size="14.00">output:</text>
<polyline fill="none" stroke="black" points="506,-581.5 506,-627.5 "/>
<text text-anchor="middle" x="551.5" y="-612.3" font-family="Times New Roman,serif" font-size="14.00">(None, 1, 49)</text>
<polyline fill="none" stroke="black" points="506,-604.5 597,-604.5 "/>
<text text-anchor="middle" x="551.5" y="-589.3" font-family="Times New Roman,serif" font-size="14.00">(None, 49, 1)</text>
</g>
<!-- 2430550986088&#45;&gt;2430550985584 -->
<g id="edge13" class="edge"><title>2430550986088&#45;&gt;2430550985584</title>
<path fill="none" stroke="black" d="M459.5,-664.366C459.5,-656.152 459.5,-646.658 459.5,-637.725"/>
<polygon fill="black" stroke="black" points="463,-637.607 459.5,-627.607 456,-637.607 463,-637.607"/>
</g>
<!-- 2430550985584&#45;&gt;2430551089784 -->
<g id="edge15" class="edge"><title>2430550985584&#45;&gt;2430551089784</title>
<path fill="none" stroke="black" d="M459.5,-581.366C459.5,-573.152 459.5,-563.658 459.5,-554.725"/>
<polygon fill="black" stroke="black" points="463,-554.607 459.5,-544.607 456,-554.607 463,-554.607"/>
</g>
<!-- 2430551089280 -->
<g id="node16" class="node"><title>2430551089280</title>
<polygon fill="none" stroke="black" points="263.5,-415.5 263.5,-461.5 593.5,-461.5 593.5,-415.5 263.5,-415.5"/>
<text text-anchor="middle" x="348.5" y="-434.8" font-family="Times New Roman,serif" font-size="14.00">image_embedding: Lambda</text>
<polyline fill="none" stroke="black" points="433.5,-415.5 433.5,-461.5 "/>
<text text-anchor="middle" x="461.5" y="-446.3" font-family="Times New Roman,serif" font-size="14.00">input:</text>
<polyline fill="none" stroke="black" points="433.5,-438.5 489.5,-438.5 "/>
<text text-anchor="middle" x="461.5" y="-423.3" font-family="Times New Roman,serif" font-size="14.00">output:</text>
<polyline fill="none" stroke="black" points="489.5,-415.5 489.5,-461.5 "/>
<text text-anchor="middle" x="541.5" y="-446.3" font-family="Times New Roman,serif" font-size="14.00">(None, 49, 512)</text>
<polyline fill="none" stroke="black" points="489.5,-438.5 593.5,-438.5 "/>
<text text-anchor="middle" x="541.5" y="-423.3" font-family="Times New Roman,serif" font-size="14.00">(None, 512)</text>
</g>
<!-- 2430551089784&#45;&gt;2430551089280 -->
<g id="edge16" class="edge"><title>2430551089784&#45;&gt;2430551089280</title>
<path fill="none" stroke="black" d="M451.029,-498.366C447.817,-489.973 444.094,-480.245 440.61,-471.143"/>
<polygon fill="black" stroke="black" points="443.804,-469.695 436.961,-461.607 437.266,-472.197 443.804,-469.695"/>
</g>
<!-- 2430551089616 -->
<g id="node17" class="node"><title>2430551089616</title>
<polygon fill="none" stroke="black" points="194,-332.5 194,-378.5 539,-378.5 539,-332.5 194,-332.5"/>
<text text-anchor="middle" x="289.5" y="-351.8" font-family="Times New Roman,serif" font-size="14.00">repeat_vector_2: RepeatVector</text>
<polyline fill="none" stroke="black" points="385,-332.5 385,-378.5 "/>
<text text-anchor="middle" x="413" y="-363.3" font-family="Times New Roman,serif" font-size="14.00">input:</text>
<polyline fill="none" stroke="black" points="385,-355.5 441,-355.5 "/>
<text text-anchor="middle" x="413" y="-340.3" font-family="Times New Roman,serif" font-size="14.00">output:</text>
<polyline fill="none" stroke="black" points="441,-332.5 441,-378.5 "/>
<text text-anchor="middle" x="490" y="-363.3" font-family="Times New Roman,serif" font-size="14.00">(None, 512)</text>
<polyline fill="none" stroke="black" points="441,-355.5 539,-355.5 "/>
<text text-anchor="middle" x="490" y="-340.3" font-family="Times New Roman,serif" font-size="14.00">(None, 1, 512)</text>
</g>
<!-- 2430551089280&#45;&gt;2430551089616 -->
<g id="edge17" class="edge"><title>2430551089280&#45;&gt;2430551089616</title>
<path fill="none" stroke="black" d="M411.558,-415.366C404.792,-406.527 396.892,-396.206 389.614,-386.697"/>
<polygon fill="black" stroke="black" points="392.279,-384.42 383.421,-378.607 386.72,-388.675 392.279,-384.42"/>
</g>
<!-- 2430551089616&#45;&gt;2430551131304 -->
<g id="edge18" class="edge"><title>2430551089616&#45;&gt;2430551131304</title>
<path fill="none" stroke="black" d="M334.802,-332.366C321.12,-322.812 304.96,-311.528 290.468,-301.409"/>
<polygon fill="black" stroke="black" points="292.362,-298.462 282.159,-295.607 288.354,-304.202 292.362,-298.462"/>
</g>
<!-- 2430551132592 -->
<g id="node19" class="node"><title>2430551132592</title>
<polygon fill="none" stroke="black" points="74,-166.5 74,-212.5 427,-212.5 427,-166.5 74,-166.5"/>
<text text-anchor="middle" x="167" y="-185.8" font-family="Times New Roman,serif" font-size="14.00">cu_dnnlstm_2: CuDNNLSTM</text>
<polyline fill="none" stroke="black" points="260,-166.5 260,-212.5 "/>
<text text-anchor="middle" x="288" y="-197.3" font-family="Times New Roman,serif" font-size="14.00">input:</text>
<polyline fill="none" stroke="black" points="260,-189.5 316,-189.5 "/>
<text text-anchor="middle" x="288" y="-174.3" font-family="Times New Roman,serif" font-size="14.00">output:</text>
<polyline fill="none" stroke="black" points="316,-166.5 316,-212.5 "/>
<text text-anchor="middle" x="371.5" y="-197.3" font-family="Times New Roman,serif" font-size="14.00">(None, 41, 512)</text>
<polyline fill="none" stroke="black" points="316,-189.5 427,-189.5 "/>
<text text-anchor="middle" x="371.5" y="-174.3" font-family="Times New Roman,serif" font-size="14.00">(None, 41, 1024)</text>
</g>
<!-- 2430551131304&#45;&gt;2430551132592 -->
<g id="edge20" class="edge"><title>2430551131304&#45;&gt;2430551132592</title>
<path fill="none" stroke="black" d="M250.5,-249.366C250.5,-241.152 250.5,-231.658 250.5,-222.725"/>
<polygon fill="black" stroke="black" points="254,-222.607 250.5,-212.607 247,-222.607 254,-222.607"/>
</g>
<!-- 2430551190496 -->
<g id="node20" class="node"><title>2430551190496</title>
<polygon fill="none" stroke="black" points="74,-83.5 74,-129.5 427,-129.5 427,-83.5 74,-83.5"/>
<text text-anchor="middle" x="167" y="-102.8" font-family="Times New Roman,serif" font-size="14.00">cu_dnnlstm_3: CuDNNLSTM</text>
<polyline fill="none" stroke="black" points="260,-83.5 260,-129.5 "/>
<text text-anchor="middle" x="288" y="-114.3" font-family="Times New Roman,serif" font-size="14.00">input:</text>
<polyline fill="none" stroke="black" points="260,-106.5 316,-106.5 "/>
<text text-anchor="middle" x="288" y="-91.3" font-family="Times New Roman,serif" font-size="14.00">output:</text>
<polyline fill="none" stroke="black" points="316,-83.5 316,-129.5 "/>
<text text-anchor="middle" x="371.5" y="-114.3" font-family="Times New Roman,serif" font-size="14.00">(None, 41, 1024)</text>
<polyline fill="none" stroke="black" points="316,-106.5 427,-106.5 "/>
<text text-anchor="middle" x="371.5" y="-91.3" font-family="Times New Roman,serif" font-size="14.00">(None, 1024)</text>
</g>
<!-- 2430551132592&#45;&gt;2430551190496 -->
<g id="edge21" class="edge"><title>2430551132592&#45;&gt;2430551190496</title>
<path fill="none" stroke="black" d="M250.5,-166.366C250.5,-158.152 250.5,-148.658 250.5,-139.725"/>
<polygon fill="black" stroke="black" points="254,-139.607 250.5,-129.607 247,-139.607 254,-139.607"/>
</g>
<!-- 2430551784752 -->
<g id="node21" class="node"><title>2430551784752</title>
<polygon fill="none" stroke="black" points="102.5,-0.5 102.5,-46.5 398.5,-46.5 398.5,-0.5 102.5,-0.5"/>
<text text-anchor="middle" x="174" y="-19.8" font-family="Times New Roman,serif" font-size="14.00">caption_output: Dense</text>
<polyline fill="none" stroke="black" points="245.5,-0.5 245.5,-46.5 "/>
<text text-anchor="middle" x="273.5" y="-31.3" font-family="Times New Roman,serif" font-size="14.00">input:</text>
<polyline fill="none" stroke="black" points="245.5,-23.5 301.5,-23.5 "/>
<text text-anchor="middle" x="273.5" y="-8.3" font-family="Times New Roman,serif" font-size="14.00">output:</text>
<polyline fill="none" stroke="black" points="301.5,-0.5 301.5,-46.5 "/>
<text text-anchor="middle" x="350" y="-31.3" font-family="Times New Roman,serif" font-size="14.00">(None, 1024)</text>
<polyline fill="none" stroke="black" points="301.5,-23.5 398.5,-23.5 "/>
<text text-anchor="middle" x="350" y="-8.3" font-family="Times New Roman,serif" font-size="14.00">(None, 17628)</text>
</g>
<!-- 2430551190496&#45;&gt;2430551784752 -->
<g id="edge22" class="edge"><title>2430551190496&#45;&gt;2430551784752</title>
<path fill="none" stroke="black" d="M250.5,-83.3664C250.5,-75.1516 250.5,-65.6579 250.5,-56.7252"/>
<polygon fill="black" stroke="black" points="254,-56.6068 250.5,-46.6068 247,-56.6069 254,-56.6068"/>
</g>
</g>
</svg>
