<?xml version="1.0" encoding="UTF-8" standalone="no"?>
<!DOCTYPE svg PUBLIC "-//W3C//DTD SVG 1.1//EN"
 "http://www.w3.org/Graphics/SVG/1.1/DTD/svg11.dtd">
<!-- Generated by graphviz version 2.38.0 (20140413.2041)
 -->
<!-- Title: G Pages: 1 -->
<svg width="847pt" height="1466pt"
 viewBox="0.00 0.00 847.00 1466.00" xmlns="http://www.w3.org/2000/svg" xmlns:xlink="http://www.w3.org/1999/xlink">
<g id="graph0" class="graph" transform="scale(1 1) rotate(0) translate(4 1462)">
<title>G</title>
<polygon fill="white" stroke="none" points="-4,4 -4,-1462 843,-1462 843,4 -4,4"/>
<!-- 2021265854080 -->
<g id="node1" class="node"><title>2021265854080</title>
<polygon fill="none" stroke="black" points="109,-1411.5 109,-1457.5 368,-1457.5 368,-1411.5 109,-1411.5"/>
<text text-anchor="middle" x="172" y="-1430.8" font-family="Times New Roman,serif" font-size="14.00">input_1: InputLayer</text>
<polyline fill="none" stroke="black" points="235,-1411.5 235,-1457.5 "/>
<text text-anchor="middle" x="263" y="-1442.3" font-family="Times New Roman,serif" font-size="14.00">input:</text>
<polyline fill="none" stroke="black" points="235,-1434.5 291,-1434.5 "/>
<text text-anchor="middle" x="263" y="-1419.3" font-family="Times New Roman,serif" font-size="14.00">output:</text>
<polyline fill="none" stroke="black" points="291,-1411.5 291,-1457.5 "/>
<text text-anchor="middle" x="329.5" y="-1442.3" font-family="Times New Roman,serif" font-size="14.00">(None, 40)</text>
<polyline fill="none" stroke="black" points="291,-1434.5 368,-1434.5 "/>
<text text-anchor="middle" x="329.5" y="-1419.3" font-family="Times New Roman,serif" font-size="14.00">(None, 40)</text>
</g>
<!-- 2021265970904 -->
<g id="node2" class="node"><title>2021265970904</title>
<polygon fill="none" stroke="black" points="77,-1328.5 77,-1374.5 400,-1374.5 400,-1328.5 77,-1328.5"/>
<text text-anchor="middle" x="158.5" y="-1347.8" font-family="Times New Roman,serif" font-size="14.00">embedding_1: Embedding</text>
<polyline fill="none" stroke="black" points="240,-1328.5 240,-1374.5 "/>
<text text-anchor="middle" x="268" y="-1359.3" font-family="Times New Roman,serif" font-size="14.00">input:</text>
<polyline fill="none" stroke="black" points="240,-1351.5 296,-1351.5 "/>
<text text-anchor="middle" x="268" y="-1336.3" font-family="Times New Roman,serif" font-size="14.00">output:</text>
<polyline fill="none" stroke="black" points="296,-1328.5 296,-1374.5 "/>
<text text-anchor="middle" x="348" y="-1359.3" font-family="Times New Roman,serif" font-size="14.00">(None, 40)</text>
<polyline fill="none" stroke="black" points="296,-1351.5 400,-1351.5 "/>
<text text-anchor="middle" x="348" y="-1336.3" font-family="Times New Roman,serif" font-size="14.00">(None, 40, 512)</text>
</g>
<!-- 2021265854080&#45;&gt;2021265970904 -->
<g id="edge1" class="edge"><title>2021265854080&#45;&gt;2021265970904</title>
<path fill="none" stroke="black" d="M238.5,-1411.37C238.5,-1403.15 238.5,-1393.66 238.5,-1384.73"/>
<polygon fill="black" stroke="black" points="242,-1384.61 238.5,-1374.61 235,-1384.61 242,-1384.61"/>
</g>
<!-- 2021265970568 -->
<g id="node4" class="node"><title>2021265970568</title>
<polygon fill="none" stroke="black" points="65.5,-1245.5 65.5,-1291.5 411.5,-1291.5 411.5,-1245.5 65.5,-1245.5"/>
<text text-anchor="middle" x="158.5" y="-1264.8" font-family="Times New Roman,serif" font-size="14.00">cu_dnnlstm_1: CuDNNLSTM</text>
<polyline fill="none" stroke="black" points="251.5,-1245.5 251.5,-1291.5 "/>
<text text-anchor="middle" x="279.5" y="-1276.3" font-family="Times New Roman,serif" font-size="14.00">input:</text>
<polyline fill="none" stroke="black" points="251.5,-1268.5 307.5,-1268.5 "/>
<text text-anchor="middle" x="279.5" y="-1253.3" font-family="Times New Roman,serif" font-size="14.00">output:</text>
<polyline fill="none" stroke="black" points="307.5,-1245.5 307.5,-1291.5 "/>
<text text-anchor="middle" x="359.5" y="-1276.3" font-family="Times New Roman,serif" font-size="14.00">(None, 40, 512)</text>
<polyline fill="none" stroke="black" points="307.5,-1268.5 411.5,-1268.5 "/>
<text text-anchor="middle" x="359.5" y="-1253.3" font-family="Times New Roman,serif" font-size="14.00">(None, 40, 256)</text>
</g>
<!-- 2021265970904&#45;&gt;2021265970568 -->
<g id="edge2" class="edge"><title>2021265970904&#45;&gt;2021265970568</title>
<path fill="none" stroke="black" d="M238.5,-1328.37C238.5,-1320.15 238.5,-1310.66 238.5,-1301.73"/>
<polygon fill="black" stroke="black" points="242,-1301.61 238.5,-1291.61 235,-1301.61 242,-1301.61"/>
</g>
<!-- 2021302156704 -->
<g id="node3" class="node"><title>2021302156704</title>
<polygon fill="none" stroke="black" points="531,-1245.5 531,-1291.5 838,-1291.5 838,-1245.5 531,-1245.5"/>
<text text-anchor="middle" x="594" y="-1264.8" font-family="Times New Roman,serif" font-size="14.00">input_2: InputLayer</text>
<polyline fill="none" stroke="black" points="657,-1245.5 657,-1291.5 "/>
<text text-anchor="middle" x="685" y="-1276.3" font-family="Times New Roman,serif" font-size="14.00">input:</text>
<polyline fill="none" stroke="black" points="657,-1268.5 713,-1268.5 "/>
<text text-anchor="middle" x="685" y="-1253.3" font-family="Times New Roman,serif" font-size="14.00">output:</text>
<polyline fill="none" stroke="black" points="713,-1245.5 713,-1291.5 "/>
<text text-anchor="middle" x="775.5" y="-1276.3" font-family="Times New Roman,serif" font-size="14.00">(None, 14, 14, 512)</text>
<polyline fill="none" stroke="black" points="713,-1268.5 838,-1268.5 "/>
<text text-anchor="middle" x="775.5" y="-1253.3" font-family="Times New Roman,serif" font-size="14.00">(None, 14, 14, 512)</text>
</g>
<!-- 2021302204288 -->
<g id="node5" class="node"><title>2021302204288</title>
<polygon fill="none" stroke="black" points="530,-1162.5 530,-1208.5 839,-1208.5 839,-1162.5 530,-1162.5"/>
<text text-anchor="middle" x="594" y="-1181.8" font-family="Times New Roman,serif" font-size="14.00">reshape_1: Reshape</text>
<polyline fill="none" stroke="black" points="658,-1162.5 658,-1208.5 "/>
<text text-anchor="middle" x="686" y="-1193.3" font-family="Times New Roman,serif" font-size="14.00">input:</text>
<polyline fill="none" stroke="black" points="658,-1185.5 714,-1185.5 "/>
<text text-anchor="middle" x="686" y="-1170.3" font-family="Times New Roman,serif" font-size="14.00">output:</text>
<polyline fill="none" stroke="black" points="714,-1162.5 714,-1208.5 "/>
<text text-anchor="middle" x="776.5" y="-1193.3" font-family="Times New Roman,serif" font-size="14.00">(None, 14, 14, 512)</text>
<polyline fill="none" stroke="black" points="714,-1185.5 839,-1185.5 "/>
<text text-anchor="middle" x="776.5" y="-1170.3" font-family="Times New Roman,serif" font-size="14.00">(None, 196, 512)</text>
</g>
<!-- 2021302156704&#45;&gt;2021302204288 -->
<g id="edge3" class="edge"><title>2021302156704&#45;&gt;2021302204288</title>
<path fill="none" stroke="black" d="M684.5,-1245.37C684.5,-1237.15 684.5,-1227.66 684.5,-1218.73"/>
<polygon fill="black" stroke="black" points="688,-1218.61 684.5,-1208.61 681,-1218.61 688,-1218.61"/>
</g>
<!-- 2021302156984 -->
<g id="node6" class="node"><title>2021302156984</title>
<polygon fill="none" stroke="black" points="0,-1162.5 0,-1208.5 477,-1208.5 477,-1162.5 0,-1162.5"/>
<text text-anchor="middle" x="158.5" y="-1181.8" font-family="Times New Roman,serif" font-size="14.00">time_distributed_1(dense_1): TimeDistributed(Dense)</text>
<polyline fill="none" stroke="black" points="317,-1162.5 317,-1208.5 "/>
<text text-anchor="middle" x="345" y="-1193.3" font-family="Times New Roman,serif" font-size="14.00">input:</text>
<polyline fill="none" stroke="black" points="317,-1185.5 373,-1185.5 "/>
<text text-anchor="middle" x="345" y="-1170.3" font-family="Times New Roman,serif" font-size="14.00">output:</text>
<polyline fill="none" stroke="black" points="373,-1162.5 373,-1208.5 "/>
<text text-anchor="middle" x="425" y="-1193.3" font-family="Times New Roman,serif" font-size="14.00">(None, 40, 256)</text>
<polyline fill="none" stroke="black" points="373,-1185.5 477,-1185.5 "/>
<text text-anchor="middle" x="425" y="-1170.3" font-family="Times New Roman,serif" font-size="14.00">(None, 40, 512)</text>
</g>
<!-- 2021265970568&#45;&gt;2021302156984 -->
<g id="edge4" class="edge"><title>2021265970568&#45;&gt;2021302156984</title>
<path fill="none" stroke="black" d="M238.5,-1245.37C238.5,-1237.15 238.5,-1227.66 238.5,-1218.73"/>
<polygon fill="black" stroke="black" points="242,-1218.61 238.5,-1208.61 235,-1218.61 242,-1218.61"/>
</g>
<!-- 2021302202608 -->
<g id="node7" class="node"><title>2021302202608</title>
<polygon fill="none" stroke="black" points="469,-1079.5 469,-1125.5 764,-1125.5 764,-1079.5 469,-1079.5"/>
<text text-anchor="middle" x="533" y="-1098.8" font-family="Times New Roman,serif" font-size="14.00">reshape_2: Reshape</text>
<polyline fill="none" stroke="black" points="597,-1079.5 597,-1125.5 "/>
<text text-anchor="middle" x="625" y="-1110.3" font-family="Times New Roman,serif" font-size="14.00">input:</text>
<polyline fill="none" stroke="black" points="597,-1102.5 653,-1102.5 "/>
<text text-anchor="middle" x="625" y="-1087.3" font-family="Times New Roman,serif" font-size="14.00">output:</text>
<polyline fill="none" stroke="black" points="653,-1079.5 653,-1125.5 "/>
<text text-anchor="middle" x="708.5" y="-1110.3" font-family="Times New Roman,serif" font-size="14.00">(None, 196, 512)</text>
<polyline fill="none" stroke="black" points="653,-1102.5 764,-1102.5 "/>
<text text-anchor="middle" x="708.5" y="-1087.3" font-family="Times New Roman,serif" font-size="14.00">(None, 100352)</text>
</g>
<!-- 2021302204288&#45;&gt;2021302202608 -->
<g id="edge5" class="edge"><title>2021302204288&#45;&gt;2021302202608</title>
<path fill="none" stroke="black" d="M665.919,-1162.37C658.423,-1153.44 649.658,-1143 641.609,-1133.41"/>
<polygon fill="black" stroke="black" points="644.169,-1131.02 635.059,-1125.61 638.808,-1135.52 644.169,-1131.02"/>
</g>
<!-- 2021302563392 -->
<g id="node15" class="node"><title>2021302563392</title>
<polygon fill="none" stroke="black" points="267,-498.5 267,-544.5 660,-544.5 660,-498.5 267,-498.5"/>
<text text-anchor="middle" x="331" y="-517.8" font-family="Times New Roman,serif" font-size="14.00">multiply_1: Multiply</text>
<polyline fill="none" stroke="black" points="395,-498.5 395,-544.5 "/>
<text text-anchor="middle" x="423" y="-529.3" font-family="Times New Roman,serif" font-size="14.00">input:</text>
<polyline fill="none" stroke="black" points="395,-521.5 451,-521.5 "/>
<text text-anchor="middle" x="423" y="-506.3" font-family="Times New Roman,serif" font-size="14.00">output:</text>
<polyline fill="none" stroke="black" points="451,-498.5 451,-544.5 "/>
<text text-anchor="middle" x="555.5" y="-529.3" font-family="Times New Roman,serif" font-size="14.00">[(None, 196, 512), (None, 196, 1)]</text>
<polyline fill="none" stroke="black" points="451,-521.5 660,-521.5 "/>
<text text-anchor="middle" x="555.5" y="-506.3" font-family="Times New Roman,serif" font-size="14.00">(None, 196, 512)</text>
</g>
<!-- 2021302204288&#45;&gt;2021302563392 -->
<g id="edge14" class="edge"><title>2021302204288&#45;&gt;2021302563392</title>
<path fill="none" stroke="black" d="M732.328,-1162.28C747.336,-1153.07 762.561,-1140.98 772.5,-1126 798.882,-1086.23 792.5,-1068.22 792.5,-1020.5 792.5,-1020.5 792.5,-1020.5 792.5,-686.5 792.5,-609.843 720.074,-569.016 643.185,-547.273"/>
<polygon fill="black" stroke="black" points="643.868,-543.832 633.3,-544.586 642.032,-550.587 643.868,-543.832"/>
</g>
<!-- 2021302204904 -->
<g id="node8" class="node"><title>2021302204904</title>
<polygon fill="none" stroke="black" points="162.5,-1079.5 162.5,-1125.5 450.5,-1125.5 450.5,-1079.5 162.5,-1079.5"/>
<text text-anchor="middle" x="226.5" y="-1098.8" font-family="Times New Roman,serif" font-size="14.00">reshape_3: Reshape</text>
<polyline fill="none" stroke="black" points="290.5,-1079.5 290.5,-1125.5 "/>
<text text-anchor="middle" x="318.5" y="-1110.3" font-family="Times New Roman,serif" font-size="14.00">input:</text>
<polyline fill="none" stroke="black" points="290.5,-1102.5 346.5,-1102.5 "/>
<text text-anchor="middle" x="318.5" y="-1087.3" font-family="Times New Roman,serif" font-size="14.00">output:</text>
<polyline fill="none" stroke="black" points="346.5,-1079.5 346.5,-1125.5 "/>
<text text-anchor="middle" x="398.5" y="-1110.3" font-family="Times New Roman,serif" font-size="14.00">(None, 40, 512)</text>
<polyline fill="none" stroke="black" points="346.5,-1102.5 450.5,-1102.5 "/>
<text text-anchor="middle" x="398.5" y="-1087.3" font-family="Times New Roman,serif" font-size="14.00">(None, 20480)</text>
</g>
<!-- 2021302156984&#45;&gt;2021302204904 -->
<g id="edge6" class="edge"><title>2021302156984&#45;&gt;2021302204904</title>
<path fill="none" stroke="black" d="M257.081,-1162.37C264.577,-1153.44 273.342,-1143 281.391,-1133.41"/>
<polygon fill="black" stroke="black" points="284.192,-1135.52 287.941,-1125.61 278.831,-1131.02 284.192,-1135.52"/>
</g>
<!-- 2021302600816 -->
<g id="node18" class="node"><title>2021302600816</title>
<polygon fill="none" stroke="black" points="35,-249.5 35,-295.5 466,-295.5 466,-249.5 35,-249.5"/>
<text text-anchor="middle" x="121.5" y="-268.8" font-family="Times New Roman,serif" font-size="14.00">concatenate_2: Concatenate</text>
<polyline fill="none" stroke="black" points="208,-249.5 208,-295.5 "/>
<text text-anchor="middle" x="236" y="-280.3" font-family="Times New Roman,serif" font-size="14.00">input:</text>
<polyline fill="none" stroke="black" points="208,-272.5 264,-272.5 "/>
<text text-anchor="middle" x="236" y="-257.3" font-family="Times New Roman,serif" font-size="14.00">output:</text>
<polyline fill="none" stroke="black" points="264,-249.5 264,-295.5 "/>
<text text-anchor="middle" x="365" y="-280.3" font-family="Times New Roman,serif" font-size="14.00">[(None, 1, 512), (None, 40, 512)]</text>
<polyline fill="none" stroke="black" points="264,-272.5 466,-272.5 "/>
<text text-anchor="middle" x="365" y="-257.3" font-family="Times New Roman,serif" font-size="14.00">(None, 41, 512)</text>
</g>
<!-- 2021302156984&#45;&gt;2021302600816 -->
<g id="edge19" class="edge"><title>2021302156984&#45;&gt;2021302600816</title>
<path fill="none" stroke="black" d="M192.655,-1162.29C178.007,-1153.03 163.117,-1140.9 153.5,-1126 127.666,-1085.97 134.5,-1068.14 134.5,-1020.5 134.5,-1020.5 134.5,-1020.5 134.5,-437.5 134.5,-381.968 179.38,-332.068 213.308,-302.279"/>
<polygon fill="black" stroke="black" points="215.901,-304.667 221.228,-295.509 211.353,-299.346 215.901,-304.667"/>
</g>
<!-- 2021302202888 -->
<g id="node9" class="node"><title>2021302202888</title>
<polygon fill="none" stroke="black" points="249,-996.5 249,-1042.5 678,-1042.5 678,-996.5 249,-996.5"/>
<text text-anchor="middle" x="335.5" y="-1015.8" font-family="Times New Roman,serif" font-size="14.00">concatenate_1: Concatenate</text>
<polyline fill="none" stroke="black" points="422,-996.5 422,-1042.5 "/>
<text text-anchor="middle" x="450" y="-1027.3" font-family="Times New Roman,serif" font-size="14.00">input:</text>
<polyline fill="none" stroke="black" points="422,-1019.5 478,-1019.5 "/>
<text text-anchor="middle" x="450" y="-1004.3" font-family="Times New Roman,serif" font-size="14.00">output:</text>
<polyline fill="none" stroke="black" points="478,-996.5 478,-1042.5 "/>
<text text-anchor="middle" x="578" y="-1027.3" font-family="Times New Roman,serif" font-size="14.00">[(None, 100352), (None, 20480)]</text>
<polyline fill="none" stroke="black" points="478,-1019.5 678,-1019.5 "/>
<text text-anchor="middle" x="578" y="-1004.3" font-family="Times New Roman,serif" font-size="14.00">(None, 120832)</text>
</g>
<!-- 2021302202608&#45;&gt;2021302202888 -->
<g id="edge7" class="edge"><title>2021302202608&#45;&gt;2021302202888</title>
<path fill="none" stroke="black" d="M574.692,-1079.37C556.055,-1069.5 533.933,-1057.79 514.348,-1047.42"/>
<polygon fill="black" stroke="black" points="515.733,-1044.19 505.257,-1042.61 512.458,-1050.38 515.733,-1044.19"/>
</g>
<!-- 2021302204904&#45;&gt;2021302202888 -->
<g id="edge8" class="edge"><title>2021302204904&#45;&gt;2021302202888</title>
<path fill="none" stroke="black" d="M349.401,-1079.37C368.612,-1069.46 391.431,-1057.68 411.596,-1047.28"/>
<polygon fill="black" stroke="black" points="413.369,-1050.3 420.651,-1042.61 410.159,-1044.08 413.369,-1050.3"/>
</g>
<!-- 2021302205688 -->
<g id="node10" class="node"><title>2021302205688</title>
<polygon fill="none" stroke="black" points="331.5,-913.5 331.5,-959.5 595.5,-959.5 595.5,-913.5 331.5,-913.5"/>
<text text-anchor="middle" x="383.5" y="-932.8" font-family="Times New Roman,serif" font-size="14.00">dense_2: Dense</text>
<polyline fill="none" stroke="black" points="435.5,-913.5 435.5,-959.5 "/>
<text text-anchor="middle" x="463.5" y="-944.3" font-family="Times New Roman,serif" font-size="14.00">input:</text>
<polyline fill="none" stroke="black" points="435.5,-936.5 491.5,-936.5 "/>
<text text-anchor="middle" x="463.5" y="-921.3" font-family="Times New Roman,serif" font-size="14.00">output:</text>
<polyline fill="none" stroke="black" points="491.5,-913.5 491.5,-959.5 "/>
<text text-anchor="middle" x="543.5" y="-944.3" font-family="Times New Roman,serif" font-size="14.00">(None, 120832)</text>
<polyline fill="none" stroke="black" points="491.5,-936.5 595.5,-936.5 "/>
<text text-anchor="middle" x="543.5" y="-921.3" font-family="Times New Roman,serif" font-size="14.00">(None, 64)</text>
</g>
<!-- 2021302202888&#45;&gt;2021302205688 -->
<g id="edge9" class="edge"><title>2021302202888&#45;&gt;2021302205688</title>
<path fill="none" stroke="black" d="M463.5,-996.366C463.5,-988.152 463.5,-978.658 463.5,-969.725"/>
<polygon fill="black" stroke="black" points="467,-969.607 463.5,-959.607 460,-969.607 467,-969.607"/>
</g>
<!-- 2021302355336 -->
<g id="node11" class="node"><title>2021302355336</title>
<polygon fill="none" stroke="black" points="342,-830.5 342,-876.5 585,-876.5 585,-830.5 342,-830.5"/>
<text text-anchor="middle" x="394" y="-849.8" font-family="Times New Roman,serif" font-size="14.00">dense_3: Dense</text>
<polyline fill="none" stroke="black" points="446,-830.5 446,-876.5 "/>
<text text-anchor="middle" x="474" y="-861.3" font-family="Times New Roman,serif" font-size="14.00">input:</text>
<polyline fill="none" stroke="black" points="446,-853.5 502,-853.5 "/>
<text text-anchor="middle" x="474" y="-838.3" font-family="Times New Roman,serif" font-size="14.00">output:</text>
<polyline fill="none" stroke="black" points="502,-830.5 502,-876.5 "/>
<text text-anchor="middle" x="543.5" y="-861.3" font-family="Times New Roman,serif" font-size="14.00">(None, 64)</text>
<polyline fill="none" stroke="black" points="502,-853.5 585,-853.5 "/>
<text text-anchor="middle" x="543.5" y="-838.3" font-family="Times New Roman,serif" font-size="14.00">(None, 512)</text>
</g>
<!-- 2021302205688&#45;&gt;2021302355336 -->
<g id="edge10" class="edge"><title>2021302205688&#45;&gt;2021302355336</title>
<path fill="none" stroke="black" d="M463.5,-913.366C463.5,-905.152 463.5,-895.658 463.5,-886.725"/>
<polygon fill="black" stroke="black" points="467,-886.607 463.5,-876.607 460,-886.607 467,-886.607"/>
</g>
<!-- 2021302404376 -->
<g id="node12" class="node"><title>2021302404376</title>
<polygon fill="none" stroke="black" points="328.5,-747.5 328.5,-793.5 598.5,-793.5 598.5,-747.5 328.5,-747.5"/>
<text text-anchor="middle" x="394" y="-766.8" font-family="Times New Roman,serif" font-size="14.00">alpha_output: Dense</text>
<polyline fill="none" stroke="black" points="459.5,-747.5 459.5,-793.5 "/>
<text text-anchor="middle" x="487.5" y="-778.3" font-family="Times New Roman,serif" font-size="14.00">input:</text>
<polyline fill="none" stroke="black" points="459.5,-770.5 515.5,-770.5 "/>
<text text-anchor="middle" x="487.5" y="-755.3" font-family="Times New Roman,serif" font-size="14.00">output:</text>
<polyline fill="none" stroke="black" points="515.5,-747.5 515.5,-793.5 "/>
<text text-anchor="middle" x="557" y="-778.3" font-family="Times New Roman,serif" font-size="14.00">(None, 512)</text>
<polyline fill="none" stroke="black" points="515.5,-770.5 598.5,-770.5 "/>
<text text-anchor="middle" x="557" y="-755.3" font-family="Times New Roman,serif" font-size="14.00">(None, 196)</text>
</g>
<!-- 2021302355336&#45;&gt;2021302404376 -->
<g id="edge11" class="edge"><title>2021302355336&#45;&gt;2021302404376</title>
<path fill="none" stroke="black" d="M463.5,-830.366C463.5,-822.152 463.5,-812.658 463.5,-803.725"/>
<polygon fill="black" stroke="black" points="467,-803.607 463.5,-793.607 460,-803.607 467,-803.607"/>
</g>
<!-- 2021302459696 -->
<g id="node13" class="node"><title>2021302459696</title>
<polygon fill="none" stroke="black" points="291,-664.5 291,-710.5 636,-710.5 636,-664.5 291,-664.5"/>
<text text-anchor="middle" x="386.5" y="-683.8" font-family="Times New Roman,serif" font-size="14.00">repeat_vector_1: RepeatVector</text>
<polyline fill="none" stroke="black" points="482,-664.5 482,-710.5 "/>
<text text-anchor="middle" x="510" y="-695.3" font-family="Times New Roman,serif" font-size="14.00">input:</text>
<polyline fill="none" stroke="black" points="482,-687.5 538,-687.5 "/>
<text text-anchor="middle" x="510" y="-672.3" font-family="Times New Roman,serif" font-size="14.00">output:</text>
<polyline fill="none" stroke="black" points="538,-664.5 538,-710.5 "/>
<text text-anchor="middle" x="587" y="-695.3" font-family="Times New Roman,serif" font-size="14.00">(None, 196)</text>
<polyline fill="none" stroke="black" points="538,-687.5 636,-687.5 "/>
<text text-anchor="middle" x="587" y="-672.3" font-family="Times New Roman,serif" font-size="14.00">(None, 1, 196)</text>
</g>
<!-- 2021302404376&#45;&gt;2021302459696 -->
<g id="edge12" class="edge"><title>2021302404376&#45;&gt;2021302459696</title>
<path fill="none" stroke="black" d="M463.5,-747.366C463.5,-739.152 463.5,-729.658 463.5,-720.725"/>
<polygon fill="black" stroke="black" points="467,-720.607 463.5,-710.607 460,-720.607 467,-720.607"/>
</g>
<!-- 2021302459192 -->
<g id="node14" class="node"><title>2021302459192</title>
<polygon fill="none" stroke="black" points="322.5,-581.5 322.5,-627.5 604.5,-627.5 604.5,-581.5 322.5,-581.5"/>
<text text-anchor="middle" x="386.5" y="-600.8" font-family="Times New Roman,serif" font-size="14.00">permute_1: Permute</text>
<polyline fill="none" stroke="black" points="450.5,-581.5 450.5,-627.5 "/>
<text text-anchor="middle" x="478.5" y="-612.3" font-family="Times New Roman,serif" font-size="14.00">input:</text>
<polyline fill="none" stroke="black" points="450.5,-604.5 506.5,-604.5 "/>
<text text-anchor="middle" x="478.5" y="-589.3" font-family="Times New Roman,serif" font-size="14.00">output:</text>
<polyline fill="none" stroke="black" points="506.5,-581.5 506.5,-627.5 "/>
<text text-anchor="middle" x="555.5" y="-612.3" font-family="Times New Roman,serif" font-size="14.00">(None, 1, 196)</text>
<polyline fill="none" stroke="black" points="506.5,-604.5 604.5,-604.5 "/>
<text text-anchor="middle" x="555.5" y="-589.3" font-family="Times New Roman,serif" font-size="14.00">(None, 196, 1)</text>
</g>
<!-- 2021302459696&#45;&gt;2021302459192 -->
<g id="edge13" class="edge"><title>2021302459696&#45;&gt;2021302459192</title>
<path fill="none" stroke="black" d="M463.5,-664.366C463.5,-656.152 463.5,-646.658 463.5,-637.725"/>
<polygon fill="black" stroke="black" points="467,-637.607 463.5,-627.607 460,-637.607 467,-637.607"/>
</g>
<!-- 2021302459192&#45;&gt;2021302563392 -->
<g id="edge15" class="edge"><title>2021302459192&#45;&gt;2021302563392</title>
<path fill="none" stroke="black" d="M463.5,-581.366C463.5,-573.152 463.5,-563.658 463.5,-554.725"/>
<polygon fill="black" stroke="black" points="467,-554.607 463.5,-544.607 460,-554.607 467,-554.607"/>
</g>
<!-- 2021302563224 -->
<g id="node16" class="node"><title>2021302563224</title>
<polygon fill="none" stroke="black" points="263,-415.5 263,-461.5 600,-461.5 600,-415.5 263,-415.5"/>
<text text-anchor="middle" x="348" y="-434.8" font-family="Times New Roman,serif" font-size="14.00">image_embedding: Lambda</text>
<polyline fill="none" stroke="black" points="433,-415.5 433,-461.5 "/>
<text text-anchor="middle" x="461" y="-446.3" font-family="Times New Roman,serif" font-size="14.00">input:</text>
<polyline fill="none" stroke="black" points="433,-438.5 489,-438.5 "/>
<text text-anchor="middle" x="461" y="-423.3" font-family="Times New Roman,serif" font-size="14.00">output:</text>
<polyline fill="none" stroke="black" points="489,-415.5 489,-461.5 "/>
<text text-anchor="middle" x="544.5" y="-446.3" font-family="Times New Roman,serif" font-size="14.00">(None, 196, 512)</text>
<polyline fill="none" stroke="black" points="489,-438.5 600,-438.5 "/>
<text text-anchor="middle" x="544.5" y="-423.3" font-family="Times New Roman,serif" font-size="14.00">(None, 512)</text>
</g>
<!-- 2021302563392&#45;&gt;2021302563224 -->
<g id="edge16" class="edge"><title>2021302563392&#45;&gt;2021302563224</title>
<path fill="none" stroke="black" d="M454.756,-498.366C451.44,-489.973 447.597,-480.245 444.001,-471.143"/>
<polygon fill="black" stroke="black" points="447.163,-469.621 440.234,-461.607 440.653,-472.193 447.163,-469.621"/>
</g>
<!-- 2021302562888 -->
<g id="node17" class="node"><title>2021302562888</title>
<polygon fill="none" stroke="black" points="195,-332.5 195,-378.5 540,-378.5 540,-332.5 195,-332.5"/>
<text text-anchor="middle" x="290.5" y="-351.8" font-family="Times New Roman,serif" font-size="14.00">repeat_vector_2: RepeatVector</text>
<polyline fill="none" stroke="black" points="386,-332.5 386,-378.5 "/>
<text text-anchor="middle" x="414" y="-363.3" font-family="Times New Roman,serif" font-size="14.00">input:</text>
<polyline fill="none" stroke="black" points="386,-355.5 442,-355.5 "/>
<text text-anchor="middle" x="414" y="-340.3" font-family="Times New Roman,serif" font-size="14.00">output:</text>
<polyline fill="none" stroke="black" points="442,-332.5 442,-378.5 "/>
<text text-anchor="middle" x="491" y="-363.3" font-family="Times New Roman,serif" font-size="14.00">(None, 512)</text>
<polyline fill="none" stroke="black" points="442,-355.5 540,-355.5 "/>
<text text-anchor="middle" x="491" y="-340.3" font-family="Times New Roman,serif" font-size="14.00">(None, 1, 512)</text>
</g>
<!-- 2021302563224&#45;&gt;2021302562888 -->
<g id="edge17" class="edge"><title>2021302563224&#45;&gt;2021302562888</title>
<path fill="none" stroke="black" d="M414.012,-415.366C407.027,-406.527 398.872,-396.206 391.359,-386.697"/>
<polygon fill="black" stroke="black" points="393.913,-384.283 384.967,-378.607 388.421,-388.623 393.913,-384.283"/>
</g>
<!-- 2021302562888&#45;&gt;2021302600816 -->
<g id="edge18" class="edge"><title>2021302562888&#45;&gt;2021302600816</title>
<path fill="none" stroke="black" d="M335.529,-332.366C321.729,-322.812 305.43,-311.528 290.812,-301.409"/>
<polygon fill="black" stroke="black" points="292.646,-298.421 282.432,-295.607 288.662,-304.177 292.646,-298.421"/>
</g>
<!-- 2021302602272 -->
<g id="node19" class="node"><title>2021302602272</title>
<polygon fill="none" stroke="black" points="74,-166.5 74,-212.5 427,-212.5 427,-166.5 74,-166.5"/>
<text text-anchor="middle" x="167" y="-185.8" font-family="Times New Roman,serif" font-size="14.00">cu_dnnlstm_2: CuDNNLSTM</text>
<polyline fill="none" stroke="black" points="260,-166.5 260,-212.5 "/>
<text text-anchor="middle" x="288" y="-197.3" font-family="Times New Roman,serif" font-size="14.00">input:</text>
<polyline fill="none" stroke="black" points="260,-189.5 316,-189.5 "/>
<text text-anchor="middle" x="288" y="-174.3" font-family="Times New Roman,serif" font-size="14.00">output:</text>
<polyline fill="none" stroke="black" points="316,-166.5 316,-212.5 "/>
<text text-anchor="middle" x="371.5" y="-197.3" font-family="Times New Roman,serif" font-size="14.00">(None, 41, 512)</text>
<polyline fill="none" stroke="black" points="316,-189.5 427,-189.5 "/>
<text text-anchor="middle" x="371.5" y="-174.3" font-family="Times New Roman,serif" font-size="14.00">(None, 41, 1024)</text>
</g>
<!-- 2021302600816&#45;&gt;2021302602272 -->
<g id="edge20" class="edge"><title>2021302600816&#45;&gt;2021302602272</title>
<path fill="none" stroke="black" d="M250.5,-249.366C250.5,-241.152 250.5,-231.658 250.5,-222.725"/>
<polygon fill="black" stroke="black" points="254,-222.607 250.5,-212.607 247,-222.607 254,-222.607"/>
</g>
<!-- 2021302664104 -->
<g id="node20" class="node"><title>2021302664104</title>
<polygon fill="none" stroke="black" points="74,-83.5 74,-129.5 427,-129.5 427,-83.5 74,-83.5"/>
<text text-anchor="middle" x="167" y="-102.8" font-family="Times New Roman,serif" font-size="14.00">cu_dnnlstm_3: CuDNNLSTM</text>
<polyline fill="none" stroke="black" points="260,-83.5 260,-129.5 "/>
<text text-anchor="middle" x="288" y="-114.3" font-family="Times New Roman,serif" font-size="14.00">input:</text>
<polyline fill="none" stroke="black" points="260,-106.5 316,-106.5 "/>
<text text-anchor="middle" x="288" y="-91.3" font-family="Times New Roman,serif" font-size="14.00">output:</text>
<polyline fill="none" stroke="black" points="316,-83.5 316,-129.5 "/>
<text text-anchor="middle" x="371.5" y="-114.3" font-family="Times New Roman,serif" font-size="14.00">(None, 41, 1024)</text>
<polyline fill="none" stroke="black" points="316,-106.5 427,-106.5 "/>
<text text-anchor="middle" x="371.5" y="-91.3" font-family="Times New Roman,serif" font-size="14.00">(None, 1024)</text>
</g>
<!-- 2021302602272&#45;&gt;2021302664104 -->
<g id="edge21" class="edge"><title>2021302602272&#45;&gt;2021302664104</title>
<path fill="none" stroke="black" d="M250.5,-166.366C250.5,-158.152 250.5,-148.658 250.5,-139.725"/>
<polygon fill="black" stroke="black" points="254,-139.607 250.5,-129.607 247,-139.607 254,-139.607"/>
</g>
<!-- 2021303270648 -->
<g id="node21" class="node"><title>2021303270648</title>
<polygon fill="none" stroke="black" points="102.5,-0.5 102.5,-46.5 398.5,-46.5 398.5,-0.5 102.5,-0.5"/>
<text text-anchor="middle" x="174" y="-19.8" font-family="Times New Roman,serif" font-size="14.00">caption_output: Dense</text>
<polyline fill="none" stroke="black" points="245.5,-0.5 245.5,-46.5 "/>
<text text-anchor="middle" x="273.5" y="-31.3" font-family="Times New Roman,serif" font-size="14.00">input:</text>
<polyline fill="none" stroke="black" points="245.5,-23.5 301.5,-23.5 "/>
<text text-anchor="middle" x="273.5" y="-8.3" font-family="Times New Roman,serif" font-size="14.00">output:</text>
<polyline fill="none" stroke="black" points="301.5,-0.5 301.5,-46.5 "/>
<text text-anchor="middle" x="350" y="-31.3" font-family="Times New Roman,serif" font-size="14.00">(None, 1024)</text>
<polyline fill="none" stroke="black" points="301.5,-23.5 398.5,-23.5 "/>
<text text-anchor="middle" x="350" y="-8.3" font-family="Times New Roman,serif" font-size="14.00">(None, 17628)</text>
</g>
<!-- 2021302664104&#45;&gt;2021303270648 -->
<g id="edge22" class="edge"><title>2021302664104&#45;&gt;2021303270648</title>
<path fill="none" stroke="black" d="M250.5,-83.3664C250.5,-75.1516 250.5,-65.6579 250.5,-56.7252"/>
<polygon fill="black" stroke="black" points="254,-56.6068 250.5,-46.6068 247,-56.6069 254,-56.6068"/>
</g>
</g>
</svg>
